<!DOCTYPE svg PUBLIC "-//W3C//DTD SVG 1.1//EN" "http://www.w3.org/Graphics/SVG/1.1/DTD/svg11.dtd">

<!-- Uploaded to: SVG Repo, www.svgrepo.com, Transformed by: SVG Repo Mixer Tools -->
<svg fill="#00" width="80px" height="80px" viewBox="0 0 24 24" id="coffee-left" data-name="Flat Color" xmlns="http://www.w3.org/2000/svg" class="icon flat-color" stroke="#00">

<g id="SVGRepo_bgCarrier" stroke-width="0"/>

<g id="SVGRepo_tracerCarrier" stroke-linecap="round" stroke-linejoin="round"/>

<g id="SVGRepo_iconCarrier">

<path id="primary" d="M17,9H9a2,2,0,0,0-2,2H6a3,3,0,0,0,0,6H7.35A6,6,0,0,0,19,15V11A2,2,0,0,0,17,9ZM6,15a1,1,0,0,1,0-2H7v2Z" style="fill: #2ca;"/>

<path id="secondary" d="M8,6V4a1,1,0,0,1,2,0V6A1,1,0,0,1,8,6Zm4,0V4a1,1,0,0,1,2,0V6a1,1,0,0,1-2,0Zm4,0V4a1,1,0,0,1,2,0V6a1,1,0,0,1-2,0ZM3,21H21a1,1,0,0,0,0-2H3a1,1,0,0,0,0,2Z" style="fill: #2ca;"/>

</g>

</svg>